<?xml version="1.0" encoding="iso-8859-1"?>
<!-- Generator: Adobe Illustrator 19.0.0, SVG Export Plug-In . SVG Version: 6.00 Build 0)  -->
<svg version="1.1" id="Layer_1" xmlns="http://www.w3.org/2000/svg" xmlns:xlink="http://www.w3.org/1999/xlink" x="0px" y="0px"
	 viewBox="0 0 512 512" style="enable-background:new 0 0 512 512;" xml:space="preserve">
<polygon style="fill:#C9D467;" points="85.334,48.531 85.334,512 256.004,463.469 256.004,0 "/>
<polygon style="fill:#85C250;" points="256.004,0 256.004,463.469 426.666,512 426.666,48.531 "/>
<g>
	<path style="fill:#174461;" d="M378.139,107.528c-1.098,0-2.215-0.15-3.324-0.466l-73.599-20.929
		c-6.445-1.833-10.184-8.544-8.351-14.989c1.833-6.444,8.543-10.184,14.989-8.351l73.599,20.929
		c6.445,1.833,10.184,8.544,8.351,14.989C388.285,104.048,383.424,107.528,378.139,107.528z"/>
	<path style="fill:#174461;" d="M378.139,168.192c-1.098,0-2.215-0.15-3.324-0.466l-73.599-20.929
		c-6.445-1.833-10.184-8.544-8.351-14.989c1.833-6.445,8.543-10.187,14.989-8.351l73.599,20.929
		c6.445,1.833,10.184,8.544,8.351,14.989C388.285,164.711,383.424,168.192,378.139,168.192z"/>
	<path style="fill:#174461;" d="M378.139,228.856c-1.098,0-2.215-0.15-3.324-0.466l-73.599-20.929
		c-6.445-1.833-10.184-8.544-8.351-14.989s8.543-10.187,14.989-8.351l73.599,20.929c6.445,1.833,10.184,8.544,8.351,14.989
		C388.285,225.375,383.424,228.856,378.139,228.856z"/>
	<polygon style="fill:#174461;" points="378.133,437.536 378.133,277.384 304.533,256.455 304.533,416.607 	"/>
</g>
<g>
	<path style="fill:#FFFFFF;" d="M133.858,449.672c-5.286,0-10.147-3.481-11.664-8.817c-1.833-6.446,1.906-13.155,8.351-14.989
		l73.608-20.93c6.444-1.833,13.155,1.907,14.989,8.351c1.833,6.446-1.906,13.155-8.351,14.989l-73.608,20.93
		C136.073,449.521,134.956,449.672,133.858,449.672z"/>
	<path style="fill:#FFFFFF;" d="M133.858,107.53c-5.286,0-10.147-3.481-11.664-8.817c-1.833-6.446,1.906-13.155,8.351-14.989
		l73.608-20.93c6.444-1.832,13.155,1.906,14.989,8.351c1.833,6.446-1.906,13.155-8.351,14.989l-73.608,20.93
		C136.073,107.379,134.956,107.53,133.858,107.53z"/>
	<path style="fill:#FFFFFF;" d="M133.858,168.193c-5.286,0-10.147-3.481-11.664-8.817c-1.833-6.446,1.906-13.155,8.351-14.989
		l73.608-20.93c6.444-1.833,13.155,1.907,14.989,8.351c1.833,6.446-1.906,13.155-8.351,14.989l-73.608,20.93
		C136.073,168.043,134.956,168.193,133.858,168.193z"/>
</g>
<g>
</g>
<g>
</g>
<g>
</g>
<g>
</g>
<g>
</g>
<g>
</g>
<g>
</g>
<g>
</g>
<g>
</g>
<g>
</g>
<g>
</g>
<g>
</g>
<g>
</g>
<g>
</g>
<g>
</g>
</svg>
