<?xml version="1.0" encoding="iso-8859-1"?>
<!-- Generator: Adobe Illustrator 19.0.0, SVG Export Plug-In . SVG Version: 6.00 Build 0)  -->
<svg version="1.1" id="Capa_1" xmlns="http://www.w3.org/2000/svg" xmlns:xlink="http://www.w3.org/1999/xlink" x="0px" y="0px"
	 viewBox="0 0 480.002 480.002" style="enable-background:new 0 0 480.002 480.002;" xml:space="preserve">
<path style="fill:#816892;" d="M336.001,8.002l-136,104v360h272v-360L336.001,8.002z"/>
<path style="fill:#E9CD4B;" d="M280.001,352.002h160v-176h-160"/>
<path style="fill:#DE2F55;" d="M408.001,288.002v-48c-17.673,0-32-14.327-32-32h-96v112h96
	C376.001,302.329,390.328,288.002,408.001,288.002z"/>
<path style="fill:#65CECC;" d="M144.001,8.002l-136,104v360h272v-360L144.001,8.002z"/>
<circle style="fill:#816892;" cx="144.001" cy="88.002" r="24"/>
<circle style="fill:#E9CD4B;" cx="144.001" cy="256.002" r="88"/>
<circle style="fill:#DE2F55;" cx="336.001" cy="88.002" r="24"/>
<path d="M144.001,120.002c-17.673,0-32-14.327-32-32s14.327-32,32-32s32,14.327,32,32
	C175.981,105.667,161.666,119.982,144.001,120.002z M144.001,72.002c-8.837,0-16,7.163-16,16s7.163,16,16,16s16-7.163,16-16
	C159.992,79.169,152.834,72.011,144.001,72.002z"/>
<path d="M336.001,120.002c-17.673,0-32-14.327-32-32s14.327-32,32-32s32,14.327,32,32
	C367.981,105.667,353.666,119.982,336.001,120.002z M336.001,72.002c-8.837,0-16,7.163-16,16s7.163,16,16,16s16-7.163,16-16
	C351.992,79.169,344.834,72.011,336.001,72.002z"/>
<path d="M476.86,105.647l-136-104c-2.868-2.195-6.851-2.195-9.719,0L240,71.341L148.86,1.647c-2.868-2.195-6.851-2.195-9.719,0
	l-136,104c-1.98,1.514-3.141,3.863-3.141,6.355v360c0,4.418,3.582,8,8,8h464c4.418,0,8-3.582,8-8v-360
	C480.001,109.51,478.84,107.16,476.86,105.647z M272.001,464.002h-256V115.955l128-97.883l128,97.883V464.002z M288.001,216.002
	h80.805c3.235,15.696,15.5,27.961,31.195,31.195v33.609c-15.696,3.235-27.961,15.5-31.195,31.195h-80.805V216.002z M288.001,328.002
	h88c4.418,0,8-3.582,8-8c0.014-13.249,10.751-23.986,24-24c4.418,0,8-3.582,8-8v-48c0-4.418-3.582-8-8-8
	c-13.249-0.014-23.986-10.751-24-24c0-4.418-3.582-8-8-8h-88v-16h144v160h-144V328.002z M464.001,464.002h-176v-104h152
	c4.418,0,8-3.582,8-8v-176c0-4.418-3.582-8-8-8h-152v-56c0-2.492-1.161-4.842-3.141-6.355l-31.69-24.233l82.831-63.341l128,97.883
	L464.001,464.002z"/>
<path d="M144.001,352.002c-53.019,0-96-42.981-96-96s42.981-96,96-96s96,42.981,96,96
	C239.94,308.996,196.995,351.941,144.001,352.002z M144.001,176.002c-44.183,0-80,35.817-80,80s35.817,80,80,80s80-35.817,80-80
	C223.952,211.84,188.163,176.051,144.001,176.002z"/>
<path d="M162.243,254.951c-5.582-3.664-11.714-6.413-18.164-8.141c-12.148-3.898-16.078-5.906-16.078-14.809
	c0.22-8.744,7.256-15.78,16-16c8.833,0.009,15.991,7.167,16,16h16c-0.044-14.551-9.908-27.237-24-30.864v-9.136h-16v9.187
	c-13.981,3.763-23.774,16.337-24,30.813c0,21.316,15.715,26.363,27.188,30.043c4.824,1.25,9.43,3.225,13.66,5.859
	c6.95,5.04,8.499,14.76,3.46,21.71c-2.653,3.658-6.766,5.981-11.268,6.364c-4.313,0.354-8.571-1.158-11.695-4.152
	c-3.355-3.022-5.293-7.31-5.344-11.825h-16c0.05,14.551,9.911,27.236,24,30.874v9.126h16v-9.158
	c16.782-4.524,26.718-21.796,22.194-38.578C172.315,265.294,168.095,259.181,162.243,254.951L162.243,254.951z"/>
<g>
</g>
<g>
</g>
<g>
</g>
<g>
</g>
<g>
</g>
<g>
</g>
<g>
</g>
<g>
</g>
<g>
</g>
<g>
</g>
<g>
</g>
<g>
</g>
<g>
</g>
<g>
</g>
<g>
</g>
</svg>
