<?xml version="1.0" encoding="iso-8859-1"?>
<!-- Generator: Adobe Illustrator 19.0.0, SVG Export Plug-In . SVG Version: 6.00 Build 0)  -->
<svg version="1.1" id="Capa_1" xmlns="http://www.w3.org/2000/svg" xmlns:xlink="http://www.w3.org/1999/xlink" x="0px" y="0px"
	 viewBox="0 0 480.008 480.008" style="enable-background:new 0 0 480.008 480.008;" xml:space="preserve">
<g>
	<circle style="fill:#ACABB1;" cx="176.004" cy="432" r="40"/>
	<circle style="fill:#ACABB1;" cx="320.004" cy="432" r="40"/>
</g>
<path style="fill:#FFDAAA;" d="M95.844,360h284.088c7.145-0.001,13.423-4.738,15.384-11.608L456.004,136H70.484L95.844,360z"/>
<path style="fill:#FFC477;" d="M456.004,136c8.837,0,16-7.163,16-16s-7.163-16-16-16H66.884l3.6,32H456.004z"/>
<path style="fill:#A4E276;" d="M317.284,114.48l10.48-10.48l12.16-12.08L256.004,8l-83.92,83.92l12.16,12.08l10.48,10.48
	l10.48-10.48l34.8-34.72V136v144h32V136V69.28l34.8,34.72L317.284,114.48z"/>
<g>
	<path style="fill:#231F20;" d="M112.004,328c0,4.418,3.582,8,8,8h200c4.418,0,8-3.582,8-8s-3.582-8-8-8h-200
		C115.586,320,112.004,323.582,112.004,328z"/>
	<path style="fill:#231F20;" d="M368.004,336c4.418,0,8-3.582,8-8s-3.582-8-8-8h-16c-4.418,0-8,3.582-8,8s3.582,8,8,8H368.004z"/>
	<path style="fill:#231F20;" d="M189.068,120.136c3.124,3.123,8.188,3.123,11.312,0l31.624-31.576V280c0,4.418,3.582,8,8,8h32
		c4.418,0,8-3.582,8-8V88.56l31.624,31.576c3.174,3.001,8.138,3.001,11.312,0L345.604,97.6c3.13-3.118,3.14-8.183,0.022-11.314
		c-0.007-0.007-0.015-0.015-0.022-0.022L261.66,2.344c-3.124-3.123-8.188-3.123-11.312,0l-83.944,83.92
		c-3.13,3.118-3.14,8.183-0.022,11.314c0.007,0.007,0.015,0.015,0.022,0.022L189.068,120.136z M256.004,19.312l72.592,72.592
		L317.284,103.2l-39.632-39.584c-3.129-3.119-8.194-3.111-11.314,0.018c-1.494,1.499-2.334,3.53-2.334,5.646V272h-16V69.28
		c-0.001-4.418-3.583-7.999-8.002-7.998c-2.117,0-4.147,0.84-5.646,2.334L194.724,103.2l-11.312-11.264L256.004,19.312z"/>
	<path style="fill:#231F20;" d="M480.004,120c0-13.255-10.745-24-24-24H368.22c-4.418,0-8,3.582-8,8s3.582,8,8,8h87.784
		c4.418,0,8,3.582,8,8s-3.582,8-8,8H304.716c-4.418,0-8,3.582-8,8s3.582,8,8,8h140.68L387.58,346.248
		c-0.98,3.413-4.105,5.761-7.656,5.752h-276.92l-23.56-208h128.912c4.418,0,8-3.582,8-8s-3.582-8-8-8H77.604l-1.8-16h68.44
		c4.418,0,8-3.582,8-8s-3.582-8-8-8H74.012l-8.456-74.624C64.242,9.192,53.939-0.034,41.684,0H8.004c-4.418,0-8,3.582-8,8
		s3.582,8,8,8h33.68c4.104-0.024,7.561,3.063,8,7.144l44.8,395.48c1.313,12.172,11.597,21.393,23.84,21.376h10.4
		c4.392,26.112,29.12,43.72,55.232,39.328c20.151-3.389,35.939-19.177,39.328-39.328h49.44c4.418,26.139,29.19,43.747,55.329,39.329
		s43.747-29.19,39.329-55.329s-29.19-43.747-55.329-39.329c-20.143,3.405-35.924,19.186-39.329,39.329h-49.44
		c-4.392-26.112-29.12-43.72-55.232-39.328c-20.151,3.389-35.939,19.177-39.328,39.328h-10.4c-4.104,0.024-7.561-3.063-8-7.144
		L104.804,368h275.12c10.706-0.008,20.112-7.107,23.056-17.4l59.328-207.544C472.718,140.222,479.958,130.789,480.004,120
		L480.004,120z M320.004,400c17.673,0,32,14.327,32,32s-14.327,32-32,32s-32-14.327-32-32S302.331,400,320.004,400z M176.004,400
		c17.673,0,32,14.327,32,32s-14.327,32-32,32s-32-14.327-32-32S158.331,400,176.004,400z"/>
</g>
<g>
</g>
<g>
</g>
<g>
</g>
<g>
</g>
<g>
</g>
<g>
</g>
<g>
</g>
<g>
</g>
<g>
</g>
<g>
</g>
<g>
</g>
<g>
</g>
<g>
</g>
<g>
</g>
<g>
</g>
</svg>
